HIERARCHY
ROOT SpineBase
{
  OFFSET 0.000000 0.000000 0.000000
  CHANNELS 6 Xposition Yposition Zposition Zrotation Xrotation Yrotation
  JOINT SpineMid
  {
    OFFSET 0.000000 29.393043 0.000000
    CHANNELS 3 Zrotation Xrotation Yrotation
    JOINT SpineShoulder
    {
      OFFSET -0.079038 21.853501 -0.628987
      CHANNELS 3 Zrotation Xrotation Yrotation
      JOINT Neck
      {
        OFFSET -0.096614 7.265344 -0.493866
        CHANNELS 3 Zrotation Xrotation Yrotation
        JOINT Head
        {
          OFFSET -8.955186 8.280208 0.073247
          CHANNELS 3 Zrotation Xrotation Yrotation
          End Site
          {
            OFFSET 0 0 0
          }
        }
      }
      JOINT ShoulderLeft
      {
        OFFSET -9.893175 -7.590330 14.178515
        CHANNELS 3 Zrotation Xrotation Yrotation
        JOINT ElbowLeft
        {
          OFFSET -5.917014 -19.880577 -0.648085
          CHANNELS 3 Zrotation Xrotation Yrotation
          JOINT WristLeft
          {
            OFFSET -5.528227 -14.948852 -10.965658
            CHANNELS 3 Zrotation Xrotation Yrotation
            JOINT HandLeft
            {
              OFFSET -1.336600 -3.491097 -0.968737
              CHANNELS 3 Zrotation Xrotation Yrotation
              JOINT HandTipLeft
              {
                OFFSET 0.031608 -4.125990 -2.348114
                CHANNELS 3 Zrotation Xrotation Yrotation
                End Site
                {
                  OFFSET 0 0 0
                }
              }
              JOINT ThumbLeft
              {
                OFFSET 4.312409 -0.092848 -0.130231
                CHANNELS 3 Zrotation Xrotation Yrotation
                End Site
                {
                  OFFSET 0 0 0
                }
              }
            }
          }
        }
      }
      JOINT ShoulderRight
      {
        OFFSET 7.670764 -2.638355 -12.944143
        CHANNELS 3 Zrotation Xrotation Yrotation
        JOINT ElbowRight
        {
          OFFSET 0.090611 -21.794559 -6.790570
          CHANNELS 3 Zrotation Xrotation Yrotation
          JOINT WristRight
          {
            OFFSET -5.675341 -22.220622 -6.920698
            CHANNELS 3 Zrotation Xrotation Yrotation
            JOINT HandRight
            {
              OFFSET -0.834058 -8.460750 -2.989314
              CHANNELS 3 Zrotation Xrotation Yrotation
              JOINT HandTipRight
              {
                OFFSET -1.940971 -5.118501 -2.697324
                CHANNELS 3 Zrotation Xrotation Yrotation
                End Site
                {
                  OFFSET 0 0 0
                }
              }
              JOINT ThumbRight
              {
                OFFSET 3.338240 -3.160171 -1.714799
                CHANNELS 3 Zrotation Xrotation Yrotation
                End Site
                {
                  OFFSET 0 0 0
                }
              }
            }
          }
        }
      }
    }
  }
  JOINT HipLeft
  {
    OFFSET -3.948328 0.403431 2.642625
    CHANNELS 3 Zrotation Xrotation Yrotation
    JOINT KneeLeft
    {
      OFFSET -4.619590 -21.390058 -0.485019
      CHANNELS 3 Zrotation Xrotation Yrotation
      JOINT AnkleLeft
      {
        OFFSET 11.185047 -35.371090 12.173724
        CHANNELS 3 Zrotation Xrotation Yrotation
        JOINT FootLeft
        {
          OFFSET -8.486760 -3.818333 -7.915447
          CHANNELS 3 Zrotation Xrotation Yrotation
          End Site
          {
            OFFSET 0 0 0
          }
        }
      }
    }
  }
  JOINT HipRight
  {
    OFFSET 3.197438 1.684306 -9.006908
    CHANNELS 3 Zrotation Xrotation Yrotation
    JOINT KneeRight
    {
      OFFSET -7.203665 -15.361435 -21.187111
      CHANNELS 3 Zrotation Xrotation Yrotation
      JOINT AnkleRight
      {
        OFFSET 12.317397 -31.307496 19.337236
        CHANNELS 3 Zrotation Xrotation Yrotation
        JOINT FootRight
        {
          OFFSET -8.568009 -3.817094 -7.904187
          CHANNELS 3 Zrotation Xrotation Yrotation
          End Site
          {
            OFFSET 0 0 0
          }
        }
      }
    }
  }
}
MOTION
Frames: 6
Frame Time: 0.033333
37.920897 73.596228 314.032759 2.644041 -7.776929 57.634096 -0.667199 -0.474345 -57.395421 -0.342173 -0.443485 0.026666 -21.117941 9.474742 4.680827 0.000000 0.000000 0.000000 13.498035 -6.706688 4.211496 2.280354 -26.240506 2.367238 -0.170031 21.875209 -2.796465 -18.330695 -0.632963 0.802530 0.000000 0.000000 0.000000 0.000000 0.000000 0.000000 -44.382955 58.865301 33.976132 -16.846253 8.819648 -14.932901 6.961647 3.848312 12.111678 9.232515 -1.975512 -8.998388 0.000000 0.000000 0.000000 0.000000 0.000000 0.000000 3.711368 -11.729001 -55.708683 -15.187330 14.363762 0.187244 3.556781 -5.060296 -1.871542 0.000000 0.000000 0.000000 -35.229503 -37.246159 -80.462255 -64.654300 51.422647 46.551787 18.349659 -22.801279 15.229828 0.000000 0.000000 0.000000
37.463358 73.519086 313.318130 2.120523 -7.795594 57.119714 -0.656459 -0.477981 -56.935209 -0.400999 -0.409668 0.004536 -19.550856 9.828473 4.958800 0.000000 0.000000 0.000000 14.064320 -6.690953 4.192787 3.815641 -28.636303 2.829458 -1.246909 23.322539 -2.192638 -20.304599 1.508678 2.173724 0.000000 0.000000 0.000000 0.000000 0.000000 0.000000 -46.676812 57.467188 35.963378 -13.023163 8.492297 -14.314200 15.394428 11.406253 14.054131 3.336760 -6.882071 -11.410395 0.000000 0.000000 0.000000 0.000000 0.000000 0.000000 2.924458 -12.101839 -55.057957 -14.124382 16.312792 0.354588 -0.130465 -4.710676 1.712546 0.000000 0.000000 0.000000 -35.610522 -38.309985 -81.264946 -65.619288 51.334109 47.635001 25.518658 -27.581489 22.270791 0.000000 0.000000 0.000000
37.276861 73.491464 312.443690 1.963080 -7.603988 57.777282 -0.651495 -0.407395 -57.609994 -0.400172 -0.447627 -0.002669 -18.443902 9.946921 5.097585 0.000000 0.000000 0.000000 14.277013 -6.869114 4.233263 4.682846 -29.723205 2.896688 -1.390714 23.728454 -2.035535 -22.880227 0.717271 3.987463 0.000000 0.000000 0.000000 0.000000 0.000000 0.000000 -46.657125 56.987511 35.935495 -11.416760 8.321366 -14.092180 26.685992 18.846994 14.699089 -6.473891 -11.422041 -14.755399 0.000000 0.000000 0.000000 0.000000 0.000000 0.000000 0.998349 -11.948654 -55.528005 -12.950639 16.696349 -0.239423 5.473042 -7.007759 -2.052690 0.000000 0.000000 0.000000 -37.476085 -38.663888 -82.366965 -66.468974 52.469599 48.674086 35.578911 -32.299556 31.118001 0.000000 0.000000 0.000000
37.221474 73.497938 311.540568 1.989941 -7.285008 57.256450 -0.616131 -0.313249 -57.088965 -0.385261 -0.447334 -0.001860 -18.003748 9.600000 4.915324 0.000000 0.000000 0.000000 14.313717 -7.244555 4.326940 4.750023 -29.514148 2.619817 -0.872389 23.382869 -2.290773 -26.944959 5.641592 7.359798 0.000000 0.000000 0.000000 0.000000 0.000000 0.000000 -45.012109 57.301380 34.603772 -9.482680 8.762360 -14.028171 35.446372 20.777939 14.440526 -14.181343 -9.867341 -17.796747 0.000000 0.000000 0.000000 0.000000 0.000000 0.000000 -1.823196 -11.836293 -54.628480 -11.152113 18.563121 -0.825591 10.530586 -10.426936 -4.685761 0.000000 0.000000 0.000000 -38.731996 -39.617435 -81.774771 -67.030300 54.079631 49.522062 47.060310 -35.772697 38.436376 0.000000 0.000000 0.000000
37.363009 73.484227 310.538073 2.233633 -6.863498 57.012890 -0.570469 -0.199155 -56.827010 -0.363505 -0.367944 0.008728 -17.907499 9.048859 4.695161 0.000000 0.000000 0.000000 14.143473 -7.822379 4.474834 5.010665 -29.587286 2.398737 -3.373378 26.627640 -1.791315 -29.652290 11.464475 11.027887 0.000000 0.000000 0.000000 0.000000 0.000000 0.000000 -42.340590 57.439236 32.179947 -7.831874 10.048715 -13.948117 45.060235 20.187376 14.741494 -21.069701 -6.823207 -20.267544 0.000000 0.000000 0.000000 0.000000 0.000000 0.000000 -5.184984 -11.329655 -53.946152 -8.966724 20.672176 -1.509423 18.260614 -16.576573 -7.831841 0.000000 0.000000 0.000000 -40.633236 -40.446593 -80.940524 -67.753163 56.435386 50.494083 56.986678 -37.474292 47.537689 0.000000 0.000000 0.000000
37.594620 73.483004 309.597141 2.541544 -6.537035 56.917797 -0.601862 -0.183353 -56.708282 -0.409727 -0.361154 0.021945 -17.913427 8.832501 4.668263 0.000000 0.000000 0.000000 13.926220 -8.126488 4.551930 4.994071 -29.487109 2.320061 -5.850593 30.342941 -1.590210 -35.678010 23.575334 17.987644 0.000000 0.000000 0.000000 0.000000 0.000000 0.000000 -37.034892 57.901657 27.761782 -11.682404 10.541339 -14.262388 51.307527 21.516037 14.264166 -24.493166 -6.567156 -21.110972 0.000000 0.000000 0.000000 0.000000 0.000000 0.000000 -8.293448 -10.930679 -53.408001 -6.860609 22.874628 -2.149330 33.661424 -30.711821 -17.352546 0.000000 0.000000 0.000000 -42.520709 -41.113067 -80.017133 -68.591479 58.876645 51.477818 68.234484 -38.191851 55.346181 0.000000 0.000000 0.000000
